<?xml version="1.0" encoding="utf-8"?>
<!-- Generator: Adobe Illustrator 24.0.1, SVG Export Plug-In . SVG Version: 6.00 Build 0)  -->
<svg version="1.1" id="Layer_1" xmlns="http://www.w3.org/2000/svg" xmlns:xlink="http://www.w3.org/1999/xlink" x="0px" y="0px"
	 viewBox="0 0 421.9 197" style="enable-background:new 0 0 421.9 197;" xml:space="preserve">
<style type="text/css">
	.st0{fill:#ECB621;}
	.st1{fill:#0F9E4C;}
	.st2{fill:#242F64;}
</style>
<title>phdc-logo</title>
<g>
	<path class="st0" d="M103.2,68.9c-3.5-8.4-8.3-16.1-13.2-23.7C84.7,36.8,79.2,28.5,73.9,20C70,13.7,66.1,7.4,64.6,0
		c0,0.1-4.6,12.1-7.9,17.6c-4.2,7-8.6,13.9-13,20.9c1.4,3.2,3.3,6.2,5.1,9.1C53,54.3,57.4,61,61.6,67.7c3.9,6.1,7.7,12.2,10.5,18.9
		c2.5,6,4.3,12.2,4.2,18.8c-0.2,11.2-4.8,20.3-13.7,27c-1.2,0.9-2.3,1.7-3.6,2.4c1.3,0.1,2.7,0.2,4.1,0.3c10.3,0.3,19.7-2.4,28-8.6
		c11.2-8.5,17-19.8,17.2-33.9C108.6,84.2,106.4,76.5,103.2,68.9z"/>
	<g>
		<path class="st1" d="M52.6,140.8l-17-23.7c-9.6-13.4-13.9-29.4-12-45.3l0.2-1.6L6.4,98.7c-7.6,12.5-7.6,28.3,0.4,40.5
			c0.3,0.4,0.5,0.8,0.8,1.2c0.3,0.5,0.7,1,1.1,1.5l43.9,55L52.6,140.8z"/>
	</g>
</g>
<g>
	<path class="st2" d="M162,57.6c7.6,0,13.9,2.3,18.7,6.8c4.8,4.5,7.3,10.3,7.3,17.2c0,6.9-2.4,12.6-7.3,17.1s-11.1,6.8-18.7,6.8
		h-12.3v20.4h-16.2v-61c0-4.2,3.1-7.3,7.3-7.3H162z M160.6,91.4c6.7,0,10.9-4.1,10.9-9.8c0-5.7-4.2-9.9-10.9-9.9h-10.9v19.7H160.6z"
		/>
	<path class="st2" d="M237,57.6h16.2v68.3H237V99.2h-25.2v26.7h-16.2V57.6h16.2v26.7H237V57.6z"/>
	<path class="st2" d="M290.4,57.6c9.4,0,17.2,3.2,23.5,9.7c6.2,6.5,9.3,14.6,9.3,24.5c0,9.9-3.1,18-9.3,24.5
		c-6.2,6.5-14.1,9.7-23.5,9.7h-19.3c-4.2,0-7.3-3.1-7.3-7.3V64.9c0-4.2,3.1-7.3,7.3-7.3H290.4z M290.4,110.4c4.8,0,8.6-1.7,11.7-5.2
		s4.6-8,4.6-13.5s-1.5-9.9-4.6-13.4c-3.1-3.5-6.9-5.3-11.7-5.3H280v37.3H290.4z"/>
	<path class="st2" d="M338.4,116.9c-6.2-6.6-9.2-15-9.2-25.1c0-10.2,3.1-18.5,9.2-25c6.2-6.6,14.1-9.9,23.6-9.9
		c6.6,0,14,1.8,21.9,5.5l-6.4,14c-5.2-2.4-10.1-3.6-14.5-3.6c-5,0-9.1,1.8-12.4,5.3s-4.8,8-4.8,13.7s1.6,10.3,4.8,13.8
		s7.4,5.2,12.4,5.2c4.5,0,9.3-1.2,14.5-3.6l6.4,14c-7.8,3.7-15.1,5.5-21.9,5.5C352.5,126.6,344.6,123.3,338.4,116.9z"/>
</g>
</svg>
