<?xml version="1.0" encoding="utf-8"?>
<!-- Generator: Adobe Illustrator 24.0.1, SVG Export Plug-In . SVG Version: 6.00 Build 0)  -->
<svg version="1.1" id="Layer_1" xmlns="http://www.w3.org/2000/svg" xmlns:xlink="http://www.w3.org/1999/xlink" x="0px" y="0px"
	 viewBox="0 0 421.9 197" style="enable-background:new 0 0 421.9 197;" xml:space="preserve">
<style type="text/css">
	.st0{fill:#242F64;}
	.st1{fill:#ECB621;}
	.st2{fill:#0F9E4C;}
</style>
<title>phdc-logo</title>
<g>
	<path class="st0" d="M61.7-199.6h10.2v35.8H94v8.3H61.7V-199.6z"/>
	<path class="st0" d="M96.3-177.5c0-13.1,10.2-22.8,24.2-22.8c13.9,0,24.2,9.7,24.2,22.8s-10.3,22.8-24.2,22.8
		C106.5-154.6,96.3-164.4,96.3-177.5z M134.2-177.5c0-8.4-5.9-14.1-13.8-14.1s-13.8,5.7-13.8,14.1c0,8.4,5.9,14.1,13.8,14.1
		C128.3-163.3,134.2-169.1,134.2-177.5z"/>
	<path class="st0" d="M182.1-178.2h9.3v17.9c-4.9,3.7-11.5,5.6-17.9,5.6c-13.9,0-24.1-9.5-24.1-22.8s10.2-22.8,24.3-22.8
		c7.8,0,14.2,2.6,18.5,7.6l-6.6,6.1c-3.2-3.4-6.9-5-11.4-5c-8.6,0-14.4,5.7-14.4,14.1c0,8.3,5.9,14.1,14.3,14.1
		c2.8,0,5.4-0.5,7.9-1.9L182.1-178.2L182.1-178.2z"/>
	<path class="st0" d="M198.2-177.5c0-13.1,10.2-22.8,24.2-22.8c13.9,0,24.2,9.7,24.2,22.8s-10.3,22.8-24.2,22.8
		C208.4-154.6,198.2-164.4,198.2-177.5z M236.1-177.5c0-8.4-5.9-14.1-13.8-14.1c-7.9,0-13.8,5.7-13.8,14.1c0,8.4,5.9,14.1,13.8,14.1
		C230.2-163.3,236.1-169.1,236.1-177.5z"/>
	<path class="st0" d="M312.5-199.6v44.2h-10.2v-18.1h-20.1v18.1H272v-44.2h10.2v17.4h20.1v-17.4H312.5z"/>
	<path class="st0" d="M357.2-163.6v8.2H323v-44.2h33.4v8.2h-23.2v9.6h20.5v7.9h-20.5v10.2h24L357.2-163.6L357.2-163.6z"/>
	<path class="st0" d="M393.5-155.4l-8.5-12.3h-0.5h-8.9v12.3h-10.2v-44.2h19.1c11.8,0,19.2,6.1,19.2,16c0,6.6-3.3,11.5-9.1,13.9
		l9.9,14.2h-11V-155.4z M383.9-191.2h-8.3v15.4h8.3c6.2,0,9.4-2.9,9.4-7.7C393.3-188.4,390.1-191.2,383.9-191.2z"/>
	<path class="st0" d="M445.9-163.6v8.2h-34.2v-44.2h33.4v8.2h-23.2v9.6h20.5v7.9h-20.5v10.2h24L445.9-163.6L445.9-163.6z"/>
</g>
<g>
	<g>
		<path class="st1" d="M103.2,68.9c-3.5-8.4-8.3-16.1-13.2-23.7C84.7,36.8,79.2,28.5,73.9,20c-3.9-6.3-7.8-12.6-9.3-20
			c0,0.1-4.6,12.1-7.9,17.6c-4.2,7-8.6,13.9-13,20.9c1.4,3.2,3.3,6.2,5.1,9.1c4.2,6.7,8.6,13.4,12.8,20.1
			c3.9,6.1,7.7,12.2,10.5,18.9c2.5,6,4.3,12.2,4.2,18.8c-0.2,11.2-4.8,20.3-13.7,27c-1.2,0.9-2.3,1.7-3.6,2.4
			c1.3,0.1,2.7,0.2,4.1,0.3c10.3,0.3,19.7-2.4,28-8.6c11.2-8.5,17-19.8,17.2-33.9C108.6,84.2,106.4,76.5,103.2,68.9z"/>
		<g>
			<path class="st2" d="M52.6,140.8l-17-23.7c-9.6-13.4-13.9-29.4-12-45.3l0.2-1.6L6.4,98.7c-7.6,12.5-7.6,28.3,0.4,40.5
				c0.3,0.4,0.5,0.8,0.8,1.2c0.3,0.5,0.7,1,1.1,1.5l43.9,55L52.6,140.8z"/>
		</g>
	</g>
	<g>
		<path class="st0" d="M145.3,50.1c3.1,0,5.6,0.9,7.6,2.7c1.9,1.7,2.9,4,2.9,6.7c0,2.7-1,4.9-2.9,6.7c-1.9,1.7-4.5,2.6-7.6,2.6h-5.9
			v9.5h-4.6V52.6c0-1.4,1.1-2.6,2.6-2.6H145.3z M145.1,64.7c3.7,0,6.1-2.2,6.1-5.2s-2.4-5.3-6.1-5.3h-5.6v10.6H145.1z"/>
		<path class="st0" d="M176.5,70.1H162c0.6,3.1,2.7,4.8,5.8,4.8c1.9,0,4-0.5,6.3-1.4l1.5,3.3c-2.8,1.2-5.5,1.8-8.1,1.8
			c-2.9,0-5.4-1-7.2-2.9c-1.8-1.9-2.8-4.5-2.8-7.5c0-3.1,0.9-5.6,2.8-7.5s4.2-2.9,7.1-2.9c3.1,0,5.4,1,6.9,3.1
			c1.5,2.1,2.3,4.7,2.3,7.8V70.1z M172.3,66.8c-0.3-3.4-1.9-5.5-5-5.5s-5,2.2-5.4,5.5H172.3z"/>
		<path class="st0" d="M191.7,78.1c-1.1,0.3-2.5,0.4-4.3,0.4c-4.6,0-5.5-3.5-5.5-5.5V62h-2.8v-4h2.8v-4.3h4.5V58h5.2v4h-5.2v10.4
			c0,1.4,0.7,2.1,2,2.1c1,0,2-0.1,2.9-0.3L191.7,78.1z"/>
		<path class="st0" d="M207.8,62.2c-2.7,0-5.2,0.5-7.4,1.5v14.5H196V58h4l0.3,1.9c2.7-1.4,5.2-2.1,7.6-2.1V62.2z"/>
		<path class="st0" d="M212.4,75.6c-1.8-1.9-2.8-4.4-2.8-7.5s0.9-5.6,2.8-7.5c1.9-1.9,4.2-2.9,7.1-2.9c2.9,0,5.4,1,7.2,2.9
			c1.9,1.9,2.8,4.4,2.8,7.5c0,3.1-0.9,5.5-2.8,7.5c-1.9,1.9-4.3,2.9-7.2,2.9S214.3,77.5,212.4,75.6z M225.1,68.1
			c0-3.9-2.1-6.6-5.6-6.6c-3.4,0-5.5,2.7-5.5,6.6s2.1,6.5,5.5,6.5C223,74.7,225.1,72,225.1,68.1z"/>
		<path class="st0" d="M233.6,73V49.4h4.5v23c0,1.4,0.7,2.1,2,2.1c0.3,0,0.8,0,1.4-0.1l0.3,3.9c-0.7,0.1-1.6,0.2-2.6,0.2
			C234.5,78.5,233.6,75,233.6,73z"/>
		<path class="st0" d="M262.3,70.1h-14.5c0.6,3.1,2.7,4.8,5.8,4.8c1.9,0,4-0.5,6.3-1.4l1.5,3.3c-2.8,1.2-5.5,1.8-8.1,1.8
			c-2.9,0-5.4-1-7.2-2.9c-1.8-1.9-2.8-4.5-2.8-7.5c0-3.1,0.9-5.6,2.8-7.5c1.8-1.9,4.2-2.9,7.1-2.9c3.1,0,5.4,1,6.9,3.1
			c1.5,2.1,2.3,4.7,2.3,7.8V70.1z M258.2,66.8c-0.3-3.4-1.9-5.5-5-5.5s-5,2.2-5.4,5.5H258.2z"/>
		<path class="st0" d="M280.1,58h4.5v20.2h-4l-0.3-2c-2.8,1.5-5.5,2.3-7.8,2.3c-4.2,0-6.3-2-6.3-6V58h4.5v13.1
			c0,2.3,0.9,3.3,3.4,3.3c1.8,0,3.8-0.5,6.1-1.7V58z"/>
		<path class="st0" d="M321,63.7v14.5h-4.5V65.2c0-2.2-0.9-3.3-3.2-3.3c-1.5,0-3.4,0.5-5.7,1.6v0.3v14.5h-4.4V65.2
			c0-2.2-0.9-3.3-3.2-3.3c-1.6,0-3.5,0.5-5.7,1.6v14.9h-4.5V58h4l0.3,1.9c2.9-1.5,5.4-2.2,7.6-2.2c2.6,0,4.3,0.9,5.2,2.5
			c3.1-1.7,5.8-2.5,8.1-2.5C319,57.8,321,59.7,321,63.7z"/>
		<path class="st0" d="M352.8,50.1h4.6v28.2h-4.6v-12h-13.2v12H335V50.1h4.6v12h13.2V50.1z"/>
		<path class="st0" d="M376.4,58h4.5v20.2h-4l-0.3-2c-2.8,1.5-5.5,2.3-7.8,2.3c-4.2,0-6.3-2-6.3-6V58h4.5v13.1
			c0,2.3,0.9,3.3,3.4,3.3c1.8,0,3.8-0.5,6.1-1.7V58z"/>
		<path class="st0" d="M402.4,60.7c1.8,1.9,2.8,4.4,2.8,7.5s-0.9,5.5-2.8,7.5c-1.8,1.9-4.2,2.9-7,2.9c-3.2,0-5.9-0.7-8.1-2.1
			c-0.8-0.5-1.2-1.3-1.2-2.4V49.4h4.5v9c1.9-0.4,3.5-0.7,4.8-0.7C398.2,57.8,400.6,58.7,402.4,60.7z M400.7,68.1
			c0-3.9-2.2-6.5-5.6-6.5c-1.4,0-2.9,0.2-4.5,0.7v11.4c1.5,0.6,3,0.9,4.5,0.9C398.6,74.6,400.7,72,400.7,68.1z"/>
		<path class="st0" d="M144.9,84.8c3.8,0,6.9,1.3,9.4,4c2.5,2.7,3.7,6,3.7,10.1c0,4.1-1.2,7.4-3.7,10.1c-2.4,2.7-5.6,4-9.4,4h-7.5
			c-1.4,0-2.6-1.1-2.6-2.6v-23c0-1.4,1.1-2.6,2.6-2.6H144.9z M144.9,108.6c2.4,0,4.5-0.9,6-2.7c1.6-1.8,2.4-4.2,2.4-7
			s-0.8-5.2-2.4-7c-1.6-1.8-3.6-2.7-6-2.7h-5.4v19.4H144.9z"/>
		<path class="st0" d="M180.2,104.8h-14.5c0.6,3.1,2.7,4.8,5.8,4.8c1.9,0,4-0.5,6.3-1.4l1.5,3.3c-2.8,1.2-5.5,1.8-8.1,1.8
			c-2.9,0-5.4-1-7.2-2.9c-1.8-1.9-2.8-4.5-2.8-7.5c0-3.1,0.9-5.6,2.8-7.5s4.2-2.9,7.1-2.9c3.1,0,5.4,1,6.9,3.1
			c1.5,2.1,2.3,4.7,2.3,7.8V104.8z M176.1,101.6c-0.3-3.4-1.9-5.5-5-5.5s-5,2.2-5.4,5.5H176.1z"/>
		<path class="st0" d="M198,92.8h4.7l-6.9,18.2c-0.6,1.6-1.8,2.3-3.6,2.3c-1.8,0-3-0.8-3.6-2.3l-6.9-18.2h4.6l5.9,16.2L198,92.8z"/>
		<path class="st0" d="M222.9,104.8h-14.5c0.6,3.1,2.7,4.8,5.8,4.8c1.9,0,4-0.5,6.3-1.4l1.5,3.3c-2.8,1.2-5.5,1.8-8.1,1.8
			c-2.9,0-5.4-1-7.2-2.9c-1.8-1.9-2.8-4.5-2.8-7.5c0-3.1,0.9-5.6,2.8-7.5s4.2-2.9,7.1-2.9c3.1,0,5.4,1,6.9,3.1
			c1.5,2.1,2.3,4.7,2.3,7.8V104.8z M218.7,101.6c-0.3-3.4-1.9-5.5-5-5.5c-3.1,0-5,2.2-5.4,5.5H218.7z"/>
		<path class="st0" d="M227,107.7V84.1h4.5v23c0,1.4,0.7,2.1,2,2.1c0.3,0,0.8,0,1.4-0.1l0.3,3.9c-0.7,0.1-1.6,0.2-2.6,0.2
			C227.9,113.2,227,109.8,227,107.7z"/>
		<path class="st0" d="M239.4,110.4c-1.8-1.9-2.8-4.4-2.8-7.5s0.9-5.6,2.8-7.5c1.9-1.9,4.2-2.9,7.1-2.9c2.9,0,5.4,1,7.2,2.9
			c1.9,1.9,2.8,4.4,2.8,7.5c0,3.1-0.9,5.5-2.8,7.5c-1.9,1.9-4.3,2.9-7.2,2.9S241.3,112.3,239.4,110.4z M252.1,102.9
			c0-3.9-2.1-6.6-5.6-6.6c-3.4,0-5.5,2.7-5.5,6.6c0,3.9,2.1,6.5,5.5,6.5C250,109.4,252.1,106.8,252.1,102.9z"/>
		<path class="st0" d="M276.9,95.4c1.8,1.9,2.8,4.4,2.8,7.5s-0.9,5.6-2.8,7.5c-1.8,1.9-4.2,2.9-7,2.9c-1.4,0-2.9-0.2-4.8-0.7v9h-4.5
			V97.1c0-1.1,0.4-1.9,1.2-2.4c2.2-1.4,4.9-2.2,8.1-2.2C272.7,92.5,275,93.5,276.9,95.4z M275.2,102.9c0-3.9-2.2-6.5-5.6-6.5
			c-1.5,0-3,0.3-4.5,0.9v11.4c1.7,0.4,3.2,0.7,4.5,0.7C273,109.4,275.2,106.8,275.2,102.9z"/>
		<path class="st0" d="M314.9,98.5V113h-4.5V99.9c0-2.2-0.9-3.3-3.2-3.3c-1.5,0-3.4,0.5-5.7,1.6v0.3V113h-4.4V99.9
			c0-2.2-0.9-3.3-3.2-3.3c-1.6,0-3.5,0.5-5.7,1.6V113h-4.5V92.8h4l0.3,1.9c2.9-1.5,5.4-2.2,7.6-2.2c2.6,0,4.3,0.9,5.2,2.5
			c3.1-1.7,5.8-2.5,8.1-2.5C313,92.5,314.9,94.5,314.9,98.5z"/>
		<path class="st0" d="M337.8,104.8h-14.5c0.6,3.1,2.7,4.8,5.8,4.8c1.9,0,4-0.5,6.3-1.4l1.5,3.3c-2.8,1.2-5.5,1.8-8.1,1.8
			c-2.9,0-5.4-1-7.2-2.9c-1.8-1.9-2.8-4.5-2.8-7.5c0-3.1,0.9-5.6,2.8-7.5c1.8-1.9,4.2-2.9,7.1-2.9c3.1,0,5.4,1,6.9,3.1
			c1.5,2.1,2.3,4.7,2.3,7.8V104.8z M333.7,101.6c-0.3-3.4-1.9-5.5-5-5.5s-5,2.2-5.4,5.5H333.7z"/>
		<path class="st0" d="M360.3,98.5V113h-4.5V99.9c0-2.2-0.9-3.3-3.4-3.3c-1.8,0-3.8,0.5-6.1,1.7V113h-4.5V92.8h4l0.3,2
			c2.8-1.5,5.5-2.3,7.8-2.3C358.2,92.5,360.3,94.2,360.3,98.5z"/>
		<path class="st0" d="M376.4,112.9c-1.1,0.3-2.5,0.4-4.3,0.4c-4.6,0-5.5-3.5-5.5-5.5V96.8h-2.8v-4h2.8v-4.3h4.5v4.3h5.2v4H371v10.4
			c0,1.4,0.7,2.1,2,2.1c1,0,2-0.1,2.9-0.3L376.4,112.9z"/>
		<path class="st0" d="M137.6,143.9c-2.4-2.7-3.7-6.1-3.7-10.3c0-4.2,1.2-7.6,3.7-10.3c2.4-2.7,5.6-4.1,9.4-4.1
			c2.5,0,5.4,0.7,8.6,2.2l-1.8,4c-2.3-1.1-4.5-1.7-6.6-1.7c-2.5,0-4.6,0.9-6.2,2.8c-1.6,1.8-2.4,4.2-2.4,7.2c0,2.9,0.8,5.3,2.4,7.1
			c1.6,1.8,3.6,2.7,6.2,2.7c2.1,0,4.3-0.6,6.6-1.7l1.8,4c-3.2,1.4-6.1,2.2-8.6,2.2C143.2,148,140.1,146.6,137.6,143.9z"/>
		<path class="st0" d="M160.4,145.1c-1.8-1.9-2.8-4.4-2.8-7.5s0.9-5.6,2.8-7.5c1.9-1.9,4.2-2.9,7.1-2.9c2.9,0,5.4,1,7.2,2.9
			c1.9,1.9,2.8,4.4,2.8,7.5c0,3.1-0.9,5.5-2.8,7.5c-1.9,1.9-4.3,2.9-7.2,2.9S162.3,147,160.4,145.1z M173.2,137.6
			c0-3.9-2.1-6.6-5.6-6.6c-3.4,0-5.5,2.7-5.5,6.6c0,3.9,2.1,6.5,5.5,6.5C171,144.1,173.2,141.5,173.2,137.6z"/>
		<path class="st0" d="M193.5,131.7c-2.7,0-5.2,0.5-7.4,1.5v14.5h-4.5v-20.2h4l0.3,1.9c2.7-1.4,5.2-2.1,7.6-2.1V131.7z"/>
		<path class="st0" d="M213.1,130.1c1.8,1.9,2.8,4.4,2.8,7.5s-0.9,5.6-2.8,7.5c-1.8,1.9-4.2,2.9-7,2.9c-1.4,0-2.9-0.2-4.8-0.7v9
			h-4.5v-24.5c0-1.1,0.4-1.9,1.2-2.4c2.2-1.4,4.9-2.2,8.1-2.2C209,127.2,211.3,128.2,213.1,130.1z M211.5,137.7
			c0-3.9-2.2-6.5-5.6-6.5c-1.5,0-3,0.3-4.5,0.9v11.4c1.7,0.4,3.2,0.7,4.5,0.7C209.2,144.1,211.5,141.5,211.5,137.7z"/>
		<path class="st0" d="M221.6,145.1c-1.8-1.9-2.8-4.4-2.8-7.5s0.9-5.6,2.8-7.5c1.9-1.9,4.2-2.9,7.1-2.9c2.9,0,5.4,1,7.2,2.9
			c1.9,1.9,2.8,4.4,2.8,7.5c0,3.1-0.9,5.5-2.8,7.5c-1.9,1.9-4.3,2.9-7.2,2.9S223.5,147,221.6,145.1z M234.3,137.6
			c0-3.9-2.1-6.6-5.6-6.6c-3.4,0-5.5,2.7-5.5,6.6c0,3.9,2.1,6.5,5.5,6.5C232.2,144.1,234.3,141.5,234.3,137.6z"/>
		<path class="st0" d="M254.7,131.7c-2.7,0-5.2,0.5-7.4,1.5v14.5h-4.5v-20.2h4l0.3,1.9c2.7-1.4,5.2-2.1,7.6-2.1V131.7z"/>
		<path class="st0" d="M274.2,135.6v12.1h-4l-0.2-1.7c-1.9,1.3-4.1,2-6.6,2c-4,0-6.5-2.1-6.5-5.5c0-4,4-6.4,10.8-6.4
			c0.4,0,1.6,0,2.1,0v-0.5c0-3.2-1.1-4.6-3.5-4.6c-2.1,0-4.5,0.5-7.1,1.5l-1.5-3.2c3.2-1.4,6.4-2,9.4-2
			C271.8,127.2,274.2,130,274.2,135.6z M264.4,144.6c1.7,0,4-0.7,5.3-1.6v-3.6h-1.4c-4.8,0-7.1,1-7.1,3.1
			C261.2,143.7,262.2,144.6,264.4,144.6z"/>
		<path class="st0" d="M290.3,147.6c-1.1,0.3-2.5,0.4-4.3,0.4c-4.6,0-5.5-3.5-5.5-5.5v-10.9h-2.8v-4h2.8v-4.3h4.5v4.3h5.2v4h-5.2
			v10.4c0,1.4,0.7,2.1,2,2.1c1,0,2-0.1,2.9-0.3L290.3,147.6z"/>
		<path class="st0" d="M294.7,124.3c-0.5-0.5-0.8-1.2-0.8-2.1s0.3-1.6,0.8-2.1c1.1-1,3-1,4.1,0c1.1,1,1.1,3.1,0,4.2
			C297.7,125.3,295.8,125.3,294.7,124.3z M294.5,147.7v-20.2h4.5v20.2H294.5z"/>
		<path class="st0" d="M305.7,145.1c-1.8-1.9-2.8-4.4-2.8-7.5s0.9-5.6,2.8-7.5c1.9-1.9,4.2-2.9,7.1-2.9c2.9,0,5.4,1,7.2,2.9
			c1.9,1.9,2.8,4.4,2.8,7.5c0,3.1-0.9,5.5-2.8,7.5c-1.9,1.9-4.3,2.9-7.2,2.9S307.6,147,305.7,145.1z M318.4,137.6
			c0-3.9-2.1-6.6-5.6-6.6c-3.4,0-5.5,2.7-5.5,6.6c0,3.9,2.1,6.5,5.5,6.5C316.3,144.1,318.4,141.5,318.4,137.6z"/>
		<path class="st0" d="M345.3,133.2v14.5h-4.5v-13.1c0-2.2-0.9-3.3-3.4-3.3c-1.8,0-3.8,0.5-6.1,1.7v14.7h-4.5v-20.2h4l0.3,2
			c2.8-1.5,5.5-2.3,7.8-2.3C343.2,127.2,345.3,129,345.3,133.2z"/>
	</g>
</g>
</svg>
